<?xml version="1.0" standalone="no"?>
<!DOCTYPE svg PUBLIC "-//W3C//DTD SVG 20010904//EN"
 "http://www.w3.org/TR/2001/REC-SVG-20010904/DTD/svg10.dtd">
<svg version="1.0" xmlns="http://www.w3.org/2000/svg"
 width="1500.000000pt" height="542.000000pt" viewBox="0 0 1500.000000 542.000000"
 preserveAspectRatio="xMidYMid meet">

<g transform="translate(0.000000,542.000000) scale(0.100000,-0.100000)"
fill="#000000" stroke="none">
<path d="M6920 3450 l0 -40 50 0 50 0 0 -126 0 -126 -27 6 c-181 40 -314 -7
-378 -133 -72 -144 -50 -357 49 -455 83 -84 221 -88 323 -10 26 19 33 22 33
10 0 -9 9 -25 20 -36 23 -23 105 -28 159 -9 25 9 31 16 31 40 0 28 -1 29 -50
29 l-50 0 0 445 0 445 -105 0 -105 0 0 -40z m59 -390 l43 -20 -3 -147 c-4
-141 -5 -150 -32 -196 -37 -63 -77 -87 -144 -87 -41 0 -58 5 -84 27 -48 41
-79 115 -79 193 0 110 31 182 99 227 45 30 137 31 200 3z"/>
<path d="M9170 3450 l0 -40 50 0 50 0 0 -129 0 -128 -52 14 c-75 20 -176 12
-236 -19 -58 -30 -114 -101 -137 -175 -25 -78 -17 -238 14 -310 29 -66 95
-128 153 -143 79 -22 178 0 235 52 l22 21 7 -27 c9 -35 31 -46 99 -46 71 0
115 21 115 55 0 24 -3 25 -55 25 l-55 0 0 445 0 445 -105 0 -105 0 0 -40z m60
-386 l40 -16 0 -137 c0 -151 -9 -196 -47 -241 -34 -41 -73 -60 -125 -60 -58 0
-102 29 -132 87 -66 131 -30 309 74 364 44 24 135 25 190 3z"/>
<path d="M10179 3480 c-8 -62 -6 -65 44 -68 l47 -3 0 -400 0 -399 -45 0 c-25
0 -45 -3 -46 -7 -5 -39 -5 -64 1 -73 4 -7 58 -10 161 -8 l154 3 0 40 0 40 -57
3 -58 3 0 198 0 198 73 34 c59 27 85 33 141 33 64 1 70 -1 90 -27 20 -27 21
-44 26 -264 5 -218 6 -236 24 -249 24 -17 110 -18 155 -3 25 9 31 16 31 40 0
28 -1 29 -50 29 l-50 0 0 168 c-1 275 -19 348 -101 390 -38 20 -54 23 -114 19
-63 -5 -95 -14 -212 -64 -10 -4 -13 37 -13 186 l0 191 -100 0 c-59 0 -101 -4
-101 -10z"/>
<path d="M11720 3450 l0 -40 50 0 50 0 0 -429 0 -429 33 -11 c66 -21 172 -33
240 -28 181 15 282 136 281 337 0 101 -22 176 -68 241 -74 101 -225 118 -336
38 l-40 -29 0 195 0 195 -105 0 -105 0 0 -40z m476 -395 c46 -47 68 -111 69
-205 0 -106 -26 -167 -88 -208 -36 -24 -50 -27 -126 -27 -132 0 -123 -12 -119
173 3 146 5 160 28 202 36 64 79 90 152 90 50 0 63 -4 84 -25z"/>
<path d="M5392 3430 c-155 -33 -276 -160 -311 -328 -16 -75 -14 -208 4 -275
32 -125 111 -229 208 -276 105 -51 268 -51 370 -2 52 25 127 87 127 106 0 7
-16 25 -36 40 l-36 27 -26 -25 c-15 -14 -52 -38 -82 -53 -45 -23 -68 -28 -130
-28 -66 -1 -82 3 -130 30 -65 37 -110 91 -141 171 -31 82 -31 234 0 315 51
132 146 203 270 202 111 -1 191 -57 191 -134 0 -70 -64 -116 -102 -72 -9 9
-19 32 -23 50 -6 31 -8 32 -57 32 l-51 0 7 -42 c9 -56 44 -117 78 -134 41 -21
136 -18 176 6 62 38 92 162 58 243 -45 110 -216 178 -364 147z"/>
<path d="M8536 3405 c-36 -36 -26 -96 19 -117 53 -24 106 54 75 112 -13 24
-71 28 -94 5z"/>
<path d="M8065 3255 l-27 -84 -47 -6 c-68 -9 -71 -11 -71 -50 l0 -35 54 0 55
0 3 -232 c3 -213 5 -236 23 -268 25 -43 76 -70 131 -70 47 0 140 26 150 41 11
18 -28 80 -46 73 -65 -27 -120 -22 -139 15 -7 12 -11 101 -11 230 l0 211 95 0
95 0 0 45 0 45 -95 0 -95 0 0 85 c0 83 -1 85 -24 85 -20 0 -26 -10 -51 -85z"/>
<path d="M6063 3162 c-106 -38 -170 -118 -193 -239 -13 -68 -8 -181 10 -229
20 -51 89 -122 148 -151 50 -25 68 -28 147 -28 77 1 97 5 141 27 61 32 98 73
133 148 22 48 26 68 26 155 0 89 -3 107 -29 163 -31 68 -84 122 -143 148 -60
25 -178 28 -240 6z m208 -105 c134 -90 134 -334 0 -424 -40 -27 -131 -32 -184
-9 -89 37 -142 192 -107 316 12 45 65 109 104 126 52 22 147 18 187 -9z"/>
<path d="M7500 3171 c-81 -25 -153 -95 -185 -182 -15 -40 -20 -78 -20 -149 1
-83 4 -103 29 -157 57 -125 157 -181 302 -170 73 5 144 30 189 65 l23 18 -20
32 c-11 18 -23 32 -26 32 -3 0 -26 -10 -51 -22 -38 -19 -63 -23 -138 -23 -91
0 -92 0 -127 34 -40 39 -61 79 -71 134 l-7 37 225 0 c171 0 226 3 230 13 7 23
-4 132 -20 181 -22 69 -84 130 -152 150 -57 17 -138 20 -181 7z m186 -124 c25
-23 40 -48 49 -82 l12 -50 -165 -3 c-91 -1 -167 0 -169 2 -12 12 12 68 44 106
44 51 61 59 136 59 51 1 61 -2 93 -32z"/>
<path d="M9743 3166 c-125 -41 -194 -154 -194 -321 0 -146 53 -250 154 -302
46 -24 63 -27 147 -28 89 0 100 2 165 35 38 19 71 40 72 45 2 6 -7 22 -20 38
l-22 27 -60 -25 c-78 -32 -184 -35 -232 -5 -43 26 -81 85 -92 143 l-8 47 228
0 229 0 0 57 c0 125 -54 229 -144 275 -51 26 -163 34 -223 14z m178 -102 c20
-10 39 -33 55 -67 42 -91 48 -87 -147 -87 l-171 0 7 28 c10 42 52 101 88 122
40 25 125 27 168 4z"/>
<path d="M8430 3125 l0 -45 50 0 50 0 0 -235 0 -235 -50 0 -50 0 0 -45 0 -45
161 0 160 0 -3 43 -3 42 -57 3 -58 3 0 279 0 280 -100 0 -100 0 0 -45z"/>
<path d="M10950 3125 l0 -45 50 0 50 0 0 -190 c0 -104 5 -212 11 -240 28 -130
138 -171 307 -114 42 14 81 30 87 35 14 13 35 11 35 -4 0 -44 102 -63 175 -33
27 12 35 21 35 40 0 25 -3 26 -55 26 l-55 0 0 285 0 285 -106 0 -105 0 3 -42
3 -43 48 -3 47 -3 -2 -202 -3 -202 -78 -33 c-78 -34 -139 -42 -185 -28 -45 15
-52 55 -52 316 l0 240 -105 0 -105 0 0 -45z"/>
</g>
</svg>
